<svg width="303" height="104" viewBox="0 0 303 104" fill="none" xmlns="http://www.w3.org/2000/svg">
<path d="M102.884 57.128C103.404 58.272 103.04 58.844 103.144 59.728C102.832 60.56 103.092 61.496 102.884 62.328C102.884 62.952 102.364 62.64 102.468 63.732C102.156 64.668 101.532 66.28 101.012 66.748C100.388 67.216 99.868 67.892 99.452 68.516C98.672 69.348 97.892 69.348 97.528 69.972C97.06 70.492 95.76 70.96 95.396 71.012C94.928 71.116 93.732 71.324 93.108 71.636C92.276 72.052 91.08 71.584 90.404 71.896C89.728 72.104 88.168 71.792 87.284 71.584C86.712 70.908 86.296 71.376 85.62 71.012C84.84 70.7 84.476 70.648 83.956 70.232C83.488 69.972 83.072 69.92 82.292 69.4C81.564 69.088 81.252 69.088 80.888 69.348C80.68 69.556 80.368 70.492 80.004 70.804C79.588 71.272 78.236 70.908 78.392 69.92C78.548 69.036 78.444 68.516 78.652 67.788C78.808 66.904 78.548 66.332 78.704 65.448C78.86 64.564 78.6 63.368 78.652 62.536C78.548 61.756 78.496 60.976 78.392 60.196C78.288 59.468 78.184 59.208 78.496 58.74C78.808 58.324 79.952 58.168 80.056 58.948C80.16 59.884 80.42 60.04 80.42 60.976C80.42 61.548 80.68 62.276 80.94 62.744C81.252 63.316 80.784 63.94 81.512 64.2C82.032 65.136 82.448 66.072 82.864 66.54C83.592 67.372 83.436 67.58 84.268 67.996C84.736 68.672 85.36 68.776 85.984 69.14C86.4 69.4 87.18 69.972 88.012 69.816C88.896 69.816 89.208 70.18 90.404 70.076C91.756 69.972 92.536 69.92 93.42 69.608C94.564 69.296 95.344 68.776 96.124 68.256C97.216 67.476 97.372 67.008 98.1 66.072C98.672 65.084 98.724 64.512 98.776 63.16C98.828 62.016 98.516 60.924 98.204 60.456C97.788 59.572 97.112 58.896 96.54 58.636C96.02 57.856 95.24 57.596 94.252 57.388C93.576 57.024 92.744 56.92 91.756 56.504C91.132 56.296 90.82 55.724 90.248 55.932C89.364 55.984 89 55.412 88.324 55.464C87.596 55.204 87.024 54.684 86.192 54.58C85.568 54.476 85.776 53.696 84.788 53.852C83.852 53.332 83.384 53.176 82.656 52.656C82.084 52.188 81.096 51.512 80.836 50.888C80.16 50.212 80.056 49.172 79.484 48.704C79.172 48.288 78.548 47.352 78.704 46.312C78.392 45.48 78.496 44.388 78.392 43.764C78.34 43.348 78.288 42.204 78.6 41.632C78.6 41.164 79.12 40.332 79.224 39.604C79.276 38.928 79.9 38.044 80.212 37.68C80.576 37.472 80.784 36.692 81.616 36.016C81.98 35.496 82.708 34.872 83.384 34.612C84.216 34.3 84.424 33.728 85.412 33.572C86.348 33.364 86.92 32.792 87.596 32.896C88.74 32.532 89.312 32.948 89.78 32.584C90.508 32.376 91.236 32.896 92.172 32.74C92.952 32.532 93.056 33.104 93.94 33.208C94.824 33.52 94.824 33.936 95.604 33.936C96.436 34.456 96.644 34.664 97.216 34.768C97.684 34.872 98.048 34.82 98.256 34.508C98.464 34.04 98.776 34.196 98.984 33.676C99.14 33.052 100.648 33.468 100.44 34.248C100.388 35.288 100.18 35.548 100.284 36.328C100.232 37.368 100.544 37.524 100.232 38.408C100.232 39.76 100.492 40.436 100.388 41.476C100.44 42.36 100.544 42.932 100.544 43.712C100.752 44.804 98.568 45.116 98.516 43.816C98.412 42.776 98.308 41.996 98.256 41.216C98.152 40.28 97.84 39.656 97.164 38.46C96.748 37.68 96.124 36.848 95.292 36.172C95.084 35.652 94.876 35.392 94.044 35.444C93.524 35.132 92.796 34.768 92.016 34.612C91.288 34.456 90.716 34.352 89.832 34.3C88.688 34.248 87.908 34.768 87.232 34.768C86.712 34.716 85.36 35.392 84.944 36.016C84.216 36.432 83.956 37.108 83.384 37.992C82.708 38.98 82.864 39.344 82.76 40.592C82.604 41.32 83.072 42.672 83.384 43.14C84.06 44.076 84.164 44.232 85.048 45.064C85.828 45.74 86.296 45.844 87.388 46.364C88.22 46.78 89.416 47.196 89.936 47.248C90.456 47.3 90.664 47.924 91.548 47.716C92.536 47.976 92.64 48.444 93.42 48.392C94.408 48.548 94.356 49.38 95.604 49.328C96.332 49.276 96.956 50.056 97.632 50.316C98.256 50.524 98.516 51.148 99.452 51.564C99.972 51.98 100.544 52.812 101.012 53.072C101.48 53.592 101.896 54.476 102.156 54.892C102.312 55.256 102.624 56.66 102.884 57.128ZM148.094 69.556C149.134 69.452 149.082 71.324 148.406 71.324C147.47 71.376 147.054 71.168 146.534 71.272C145.442 71.48 144.662 71.064 144.298 71.116C143.362 71.376 142.478 71.168 142.01 71.116C141.022 71.428 140.762 71.272 139.722 71.116C139.098 70.856 138.474 71.428 137.434 71.116C136.342 71.116 135.77 71.48 135.146 71.116C134.366 71.22 133.846 71.064 133.274 71.168C132.598 71.48 132.078 71.324 131.194 71.272C130.414 71.428 129.738 69.556 131.506 69.66C132.286 69.608 132.806 69.608 134.21 69.608C135.042 69.608 135.926 69.192 135.77 68.62C136.082 67.58 135.926 66.436 135.926 65.396C135.926 64.616 135.874 63.94 135.926 63.264C135.926 62.796 135.978 61.808 135.926 61.132C135.718 60.196 136.602 60.092 135.926 59C135.822 58.636 136.238 57.96 135.926 56.868C135.822 55.776 135.926 55.152 135.874 54.06C136.03 53.8 135.77 52.656 134.21 52.812C133.43 52.604 131.87 52.76 130.986 52.76C129.894 52.604 128.49 52.76 127.398 52.656C126.254 52.552 125.006 52.76 123.758 52.656C123.186 52.032 122.614 52.708 121.938 52.656C120.482 52.604 120.274 53.02 120.118 53.696C119.91 54.996 119.91 56.036 120.118 56.868C119.91 57.284 119.962 58.532 120.118 59C120.118 60.04 120.378 60.248 120.118 61.132C119.858 61.548 119.858 62.744 120.118 63.264C120.066 64.096 119.806 64.876 120.118 65.396C119.754 66.124 120.118 67.736 120.118 68.308C119.858 68.932 121.106 69.556 121.73 69.556C122.77 69.712 123.914 69.504 124.902 69.608C126.202 69.608 125.734 71.272 124.954 71.22C124.174 71.168 123.55 71.22 123.134 71.22C122.666 71.22 121.418 71.22 120.898 71.116C120.274 71.48 119.598 71.012 118.558 71.116C117.518 71.48 116.946 71.22 115.854 71.22C114.814 71.272 114.658 70.544 113.93 71.116C113.41 71.428 112.838 71.116 112.006 71.168C110.862 71.532 110.498 71.272 109.718 71.324C108.678 71.376 108.262 71.428 107.586 71.272C106.598 71.064 106.702 69.4 108.054 69.556C109.198 69.712 109.822 69.712 110.966 69.556C111.538 69.452 112.162 69.712 112.37 68.828C112.474 67.528 112.422 66.748 112.318 65.448C112.786 64.668 112.63 64.148 112.37 63.68C112.526 62.692 112.318 61.808 112.474 60.924C112.474 60.56 112.63 59.52 112.526 59C112.162 58.272 112.578 57.492 112.474 56.556C112.266 55.932 112.786 55.412 112.474 54.372C112.162 53.956 112.578 53.02 112.474 52.188C112.266 51.252 112.682 50.628 112.474 50.004C112.214 49.068 112.734 48.496 112.474 47.82C112.526 46.728 113.098 46.52 112.474 45.636C112.474 45.012 112.526 44.024 112.474 43.452C112.214 43.036 112.422 42.256 112.474 41.268C112.266 40.748 112.63 40.072 112.474 39.084C112.266 37.94 112.63 36.952 112.318 35.808C112.162 35.028 111.434 34.872 110.602 34.976C109.406 34.82 108.522 35.028 107.534 34.872C106.286 34.664 106.806 33.416 107.274 33.26C107.742 33.104 108.47 33.26 109.458 33.312C110.498 33.52 110.758 32.844 111.694 33.312C112.214 33.624 112.942 33.104 113.93 33.312C114.762 33.468 115.282 33.416 116.218 33.312C117.05 33.624 117.674 33.312 118.558 33.312C119.026 33.624 120.17 33 120.846 33.312C121.886 33.52 122.094 33.104 123.238 33.312C124.33 33.416 124.434 33.104 124.954 33.26C126.15 33.624 125.942 35.08 124.486 34.976C123.654 34.924 122.614 34.924 121.938 34.924C121.366 35.08 120.69 35.132 120.378 35.548C119.962 36.068 119.858 36.9 120.118 37.524C120.222 38.096 119.91 39.552 120.118 40.228C120.17 40.904 119.39 41.372 120.118 42.88C120.118 43.764 120.066 44.856 120.118 45.948C119.962 47.144 120.274 48.288 120.118 49.38C120.118 50.576 120.482 50.992 121.938 51.044C122.51 51.044 123.654 51.356 124.798 51.148C125.682 50.992 126.514 51.408 127.19 51.044C128.178 51.148 129.842 51.2 131.35 51.096C132.546 51.512 132.806 51.096 133.794 51.096C135.302 51.148 135.874 50.836 135.77 49.952C136.082 48.808 135.874 47.3 135.926 45.948C136.03 44.596 135.77 43.608 135.926 42.464C136.446 41.424 135.718 41.164 135.926 40.228C136.394 39.136 135.718 38.356 135.874 37.316C135.978 36.744 135.926 35.548 135.458 35.288C135.146 34.872 134.314 35.028 133.95 34.976C133.014 34.924 132.39 34.924 131.454 34.924C130.466 35.028 129.738 33.52 131.246 33.312C131.922 33.208 132.13 33.208 132.598 33.312C133.586 33.312 134.21 33.364 135.094 33.416C135.51 33.208 136.394 33.208 137.434 33.312C138.162 33.468 138.786 33.364 139.722 33.312C140.814 33.572 141.022 33.26 142.01 33.312C142.634 33.624 143.882 33 144.298 33.312C145.182 33.364 145.286 33.728 145.91 33.364C146.794 33.312 147.418 33.416 148.406 33.208C149.342 33.26 149.602 35.028 148.354 34.976C147.21 34.924 146.066 35.08 144.974 34.976C144.402 34.976 143.466 35.132 143.518 36.224C143.57 37.316 143.362 38.044 143.518 39.084C143.258 39.812 143.154 40.852 143.518 41.268C143.674 42.308 143.258 42.932 143.518 43.452C143.258 44.388 143.206 45.116 143.518 45.636C143.258 46.676 143.518 47.04 143.518 47.82C143.154 48.756 143.206 49.588 143.518 50.004C143.414 50.784 143.674 51.356 143.518 52.188C143.414 52.864 143.83 53.592 143.518 54.372C143.258 55.308 143.986 55.672 143.518 56.556C142.998 57.544 143.778 58.012 143.518 58.74C143.206 59.728 143.362 60.196 143.518 60.924C143.466 61.912 143.83 62.744 143.518 63.108C143.206 63.836 143.83 64.46 143.518 65.292C143.154 67.06 143.622 67.112 143.518 68.256C143.466 68.984 144.194 69.66 145.234 69.556C146.066 69.452 146.69 69.712 148.094 69.556ZM189.237 44.648L189.861 46.468C190.121 46.832 189.341 47.508 190.381 48.392C190.485 48.964 190.537 49.64 190.641 50.316C190.537 51.148 190.433 51.512 190.745 52.344C190.381 53.124 190.953 53.592 190.641 54.32C190.433 55.256 190.641 55.256 190.381 56.192C189.861 56.66 189.809 57.336 189.861 58.064C189.653 58.844 189.393 59.572 189.237 59.832C189.289 60.716 188.457 60.924 188.405 61.548C187.989 62.432 188.145 62.328 187.469 63.16C186.845 63.576 186.637 64.044 186.377 64.668C186.221 65.552 185.233 65.864 185.129 66.072C184.765 66.228 184.037 66.956 183.725 67.372C183.569 67.892 182.633 67.84 182.269 68.516C181.541 69.14 181.333 69.244 180.657 69.504C180.189 69.764 179.357 70.18 178.993 70.336C178.473 70.908 177.745 70.804 177.225 71.012C176.341 71.532 176.133 71.064 175.353 71.48C174.989 71.428 174.521 71.74 173.481 71.792C173.117 72 172.441 72.156 171.505 71.896C170.621 71.584 170.049 72.104 169.529 71.792C168.905 72.052 168.541 71.48 167.657 71.48C166.773 71.064 166.149 71.376 165.837 71.012C165.161 70.908 164.329 70.804 164.069 70.336C163.133 70.076 162.925 69.712 162.405 69.452C161.885 69.452 161.417 68.776 160.845 68.464C160.429 68.36 159.701 67.424 159.389 67.32C158.817 67.32 158.817 66.852 158.089 66.072C157.517 65.656 157.517 65.292 156.789 64.824C156.061 64.2 156.269 63.524 155.749 63.316C154.865 62.952 155.593 62.172 154.813 61.808C154.085 61.496 154.553 60.664 153.981 59.936C153.201 59.26 153.929 59 153.409 58.064C152.941 57.44 152.837 56.972 152.837 55.984C152.733 55.308 152.525 54.944 152.681 54.32C152.525 54.008 152.733 52.864 152.577 52.396C152.213 51.46 152.837 49.952 152.941 48.652C152.993 47.456 153.617 47.924 153.409 46.78C153.305 46 154.033 45.532 153.981 45.012C154.449 43.972 154.293 43.608 154.761 43.296C155.021 42.828 155.385 42.048 155.697 41.684C155.905 41.008 156.321 40.852 156.737 40.124C156.893 39.812 157.673 39.396 157.933 38.668C158.349 38.044 158.453 37.68 159.233 37.316C160.013 36.952 159.961 36.484 160.637 36.172C161.313 36.12 161.885 35.34 162.197 35.08C162.457 35.132 163.393 34.768 163.809 34.196C164.225 33.832 164.797 34.04 165.525 33.52C165.785 33.104 166.773 33.052 167.345 32.948C168.437 33.26 168.853 32.532 169.217 32.636C169.581 32.532 170.153 32.792 171.141 32.532C171.921 32.324 172.337 32.584 173.169 32.636C173.793 32.532 174.677 32.896 175.145 32.948C175.509 32.948 176.601 33.312 177.017 33.416C177.693 33.364 178.421 33.832 178.837 34.092C179.721 34.144 179.929 34.924 180.553 34.924C180.917 35.08 181.489 35.756 182.165 35.912C182.841 36.38 182.997 36.692 183.673 37.056C184.349 37.472 183.933 38.252 185.077 38.356C185.493 38.772 186.013 39.344 186.325 39.76C186.429 40.176 186.949 40.748 187.417 41.268C187.989 41.528 188.093 42.724 188.405 42.932C188.405 43.712 188.873 44.076 189.237 44.648ZM166.877 35.34L165.005 36.952C164.641 37.264 163.965 38.46 163.601 39.032C163.133 39.604 163.341 40.228 162.665 40.852C161.365 41.996 162.561 42.204 162.041 42.984C161.677 43.92 161.833 44.232 161.625 45.532C161.521 47.04 161.521 47.768 161.365 48.964C160.949 50.42 160.897 51.252 161.209 52.448C161.521 53.384 161.209 54.476 161.417 55.932C161.573 56.972 161.625 58.48 161.781 59.572C162.041 60.248 161.885 60.612 162.197 61.34C162.405 61.964 161.677 62.432 162.717 63.056C163.029 63.992 163.289 63.94 163.393 64.72C163.809 65.136 164.069 65.76 164.277 66.28C164.537 66.592 164.849 67.892 165.733 68.048C166.097 68.308 167.189 69.296 167.553 69.4C167.969 70.128 168.697 70.18 169.581 70.284C169.945 70.336 171.089 70.908 171.869 70.596C173.117 70.752 174.053 70.44 174.781 70.024C175.665 69.972 176.497 69.244 177.069 68.464C177.745 67.788 178.629 66.852 178.889 66.176C179.097 65.396 179.929 64.252 180.189 63.316C180.241 62.484 180.657 61.652 181.073 60.196C181.125 59.208 181.593 57.96 181.645 57.024C182.113 56.192 181.749 54.84 181.957 54.06C182.113 53.436 182.373 52.448 182.061 51.46C181.749 50.316 182.321 49.276 181.905 48.184C181.437 47.248 181.749 46.312 181.489 44.908C180.969 44.128 180.969 42.724 180.657 41.736C180.293 41.06 179.825 39.604 179.305 38.772C178.993 37.732 178.057 37.316 177.849 36.796C177.485 36.484 176.809 35.652 176.081 35.236C175.717 35.184 174.521 34.612 173.897 34.404C173.325 34.196 172.181 33.728 171.505 34.04C170.933 34.196 169.997 33.988 169.061 34.248C168.125 34.716 167.865 35.028 166.877 35.34ZM231.022 33.208C232.01 33.156 232.062 35.08 230.97 34.872C229.618 34.924 229.202 34.82 228.058 34.924C226.654 35.236 226.81 35.34 226.342 36.12C225.77 36.536 226.082 37.108 225.77 37.524C225.458 37.888 225.302 38.304 225.354 38.928C225.146 39.448 224.99 40.176 224.678 40.956C224.418 42.204 224.002 42.932 223.69 44.128C223.326 44.544 223.118 44.908 223.118 45.74C223.014 46.468 222.234 47.976 222.286 48.496C222.182 48.964 221.61 50.004 221.558 50.732C221.506 51.46 220.934 51.928 220.882 53.02C220.414 54.06 220.466 54.58 220.154 55.256C219.946 55.932 219.478 56.868 219.426 57.492C219.218 58.584 218.854 59 218.698 59.78C218.23 60.82 218.178 61.496 217.814 62.588C217.346 62.952 217.606 63.368 217.294 64.2C217.242 64.668 216.774 65.084 216.774 65.916C216.722 66.488 216.358 67.06 216.254 67.632C216.254 68.36 215.682 68.62 215.838 69.348C215.838 70.024 215.526 69.868 215.526 70.596C215.37 71.168 215.214 71.376 215.11 72.052C215.058 72.52 213.862 72.364 212.978 72.364C212.146 72.364 211.054 72.52 210.794 72.156C210.17 71.22 210.378 71.064 210.17 70.44C209.858 69.504 209.754 69.036 209.39 68.256C209.442 67.632 208.922 66.696 208.766 66.02C208.974 65.24 208.506 65.032 208.142 64.148C207.778 63.68 207.726 62.328 207.31 61.756C206.686 61.08 207.05 60.144 206.478 59.416C206.062 58.896 205.958 56.972 205.542 56.504C204.866 55.516 205.438 54.944 204.866 54.632C204.502 54.008 204.19 53.384 204.034 52.24C204.086 51.72 203.202 50.628 203.202 49.9C202.786 49.38 202.994 47.976 202.37 47.508C201.85 46.624 201.746 45.792 201.59 45.168C201.07 44.336 201.174 43.66 200.758 42.88C200.706 41.84 200.03 41.268 199.77 40.124C199.874 39.24 199.406 39.136 199.094 38.408C198.678 37.368 198.886 36.9 198.21 36.38C197.69 35.86 198.106 35.444 197.482 35.132C197.222 34.768 196.806 35.028 196.494 34.872C195.922 34.612 195.818 34.976 195.246 34.82C194.57 34.612 194.258 34.924 193.218 34.872C192.594 35.028 192.074 33 193.426 33.26C194.102 33.208 194.83 33.416 195.402 33.312C196.078 33.156 197.014 33.468 197.534 33.364C197.95 33.26 198.73 33.156 199.926 33.364C200.55 33.624 201.226 33.416 202.266 33.364C203.358 33.416 204.19 33.416 204.658 33.364C205.646 33.26 206.53 33.52 207.05 33.364C207.518 33.364 208.506 33.312 209.338 33.312C210.118 33.26 210.43 33.208 211.314 33.26C212.094 33.312 211.99 34.976 211.158 34.924C209.91 34.976 208.35 34.872 207.466 34.924C206.478 34.976 206.218 35.6 206.53 36.328C206.79 37.316 207.206 38.72 207.57 39.864C207.882 40.436 208.038 41.892 208.402 42.36C208.35 43.348 209.026 44.076 209.234 44.856C209.494 46 209.182 46.78 210.014 47.56C210.534 48.028 210.066 49.432 210.846 50.16C211.314 50.628 210.534 51.616 211.574 52.344C212.042 53.072 212.146 53.8 212.51 54.632C212.77 55.724 213.082 56.244 213.342 57.128C213.654 58.168 213.238 58.376 214.018 59.104C214.33 59.832 214.642 61.444 215.006 62.068C215.318 63.16 215.942 63.264 216.202 62.64C216.41 61.964 216.878 60.872 217.034 60.092C217.294 59.208 217.814 58.48 217.918 57.388C217.97 56.504 218.23 56.14 218.594 55.048C218.542 54.06 219.114 53.436 219.322 52.708C219.218 52.136 219.894 50.888 220.05 50.316C220.31 49.432 220.414 48.964 220.726 47.976C221.246 47.352 221.038 46.676 221.454 45.636C221.818 45.012 221.662 44.284 222.13 43.556C222.598 42.828 222.182 42.464 222.65 41.632C222.91 40.852 223.066 40.488 223.326 39.396C223.378 38.408 223.69 38.096 223.846 37.212C223.742 36.692 224.262 36.224 224.106 35.652C224.106 35.132 223.17 35.08 222.494 34.924C222.026 34.82 221.506 34.872 220.726 34.872C219.842 34.872 219.582 35.08 218.802 34.768C218.334 34.56 218.178 33.364 219.01 33.312C220.258 33.26 221.09 33.52 221.922 33.312C223.118 33.156 223.898 33.468 225.146 33.364C226.186 33.208 227.538 33.468 228.422 33.364C229.202 33.26 230.138 33.26 231.022 33.208ZM248.37 69.244H249.462C250.138 69.244 251.178 69.556 252.166 69.244C253.258 68.984 253.674 69.296 254.922 69.088C256.118 68.984 256.586 69.192 257.678 68.672C258.718 68.152 259.03 67.996 260.278 67.788C260.85 67.476 261.578 67.216 262.358 66.28C263.19 65.76 263.45 64.616 263.606 64.096C264.022 63.264 264.178 62.016 264.386 61.132C264.49 60.612 264.334 60.092 264.646 59.416C265.01 58.688 266.05 58.792 266.258 59.364C266.414 59.676 266.31 60.092 266.31 60.82C266.362 61.6 265.998 61.912 265.998 62.848C265.998 63.888 265.686 64.668 265.842 64.98C265.894 66.02 265.53 66.176 265.686 67.112C265.894 68.1 265.478 68.36 265.582 69.452C265.79 70.336 265.478 71.48 264.594 71.324C263.658 71.168 262.982 71.428 261.734 71.22C260.434 70.856 260.174 71.428 259.186 71.064C258.406 71.376 256.898 70.7 255.91 71.012C254.922 71.324 253.518 70.908 252.79 71.012C251.334 70.804 250.242 71.22 249.306 70.96C248.422 71.168 248.11 70.804 247.174 70.96C246.238 71.22 245.822 70.7 245.042 70.96C243.846 71.272 243.482 71.064 242.442 70.96C241.246 71.324 240.102 71.324 239.27 71.168C238.282 71.22 237.918 71.272 236.982 71.168C236.254 71.324 235.37 71.428 234.538 71.22C233.29 71.22 233.654 69.296 234.902 69.504C235.682 69.452 236.67 69.556 237.814 69.504C238.594 69.348 239.114 69.244 239.27 68.516C239.426 67.684 239.27 66.956 239.322 65.656C240.05 64.668 239.166 63.836 239.478 63.108C239.79 62.276 239.374 61.704 239.478 60.924C239.738 60.144 239.686 59.208 239.478 58.74C239.322 58.168 239.478 57.648 239.478 56.556C239.582 55.62 239.27 55.048 239.634 54.32C240.31 53.748 239.218 52.968 239.582 52.188C239.79 51.72 239.166 51.096 239.478 50.056C239.582 49.432 239.27 48.392 239.478 47.872C240.154 46.884 239.218 46.208 239.478 45.688C239.738 44.908 239.79 44.232 239.478 43.504C239.27 42.516 239.478 42.152 239.478 41.32C239.946 40.436 239.218 40.176 239.478 39.136C239.582 38.408 239.374 37.316 239.374 36.536C239.53 35.912 238.594 35.08 237.762 35.028C237.242 34.82 236.462 35.132 235.266 34.976C234.642 35.08 234.018 34.768 234.33 33.624C234.486 33.052 235.006 33.104 235.63 33.312C236.566 33.364 237.138 33.624 238.126 33.364C238.646 33.416 238.75 33.728 239.374 33.416C240.362 33.208 242.078 33.364 243.482 33.416C244.47 33.312 244.678 33.78 245.666 33.416C246.654 33.26 246.966 33.312 247.85 33.416C248.474 33.728 249.046 33.208 250.086 33.416C250.866 33.312 251.178 33.572 252.27 33.364C253.31 33.156 253.518 33.312 254.506 33.312C254.922 33.572 255.754 33 256.69 33.312C257.262 33.52 258.146 33.364 258.874 33.26C259.862 33.208 260.226 32.896 261.214 33.208C262.462 33.52 263.034 32.636 263.814 33.26C264.282 33.676 263.71 34.56 263.97 35.444C264.23 36.328 264.074 36.744 264.074 37.732C264.23 38.512 263.762 38.72 264.178 39.448C264.334 40.54 264.386 40.904 264.386 41.736C264.386 42.36 264.594 42.932 264.386 43.348C264.126 43.868 262.878 44.076 262.826 43.14C262.566 41.892 262.566 41.424 262.358 40.904C261.89 39.864 262.046 39.344 261.37 38.512C261.214 38.044 260.694 37.108 259.914 36.796C259.082 36.276 258.406 35.964 257.418 35.808C256.534 35.288 255.806 35.652 255.234 35.236C254.558 35.184 253.778 35.08 252.946 35.132C251.958 35.236 251.594 35.132 250.45 35.08C249.774 35.028 249.462 35.444 248.942 35.184C248.578 35.028 248.266 35.392 247.798 35.6C247.278 35.704 246.914 36.38 247.018 37.368C246.758 38.46 246.966 39.968 247.018 40.904C246.55 41.372 246.654 41.84 247.018 42.724C246.966 43.244 247.226 43.764 246.966 44.44C246.654 45.22 247.122 45.428 247.07 45.688C246.862 46.52 247.278 46.728 247.018 47.196C246.55 48.08 247.122 48.444 247.07 48.808C246.862 49.9 248.006 50.68 249.15 50.472C250.138 50.524 250.814 50.524 251.438 50.212C251.906 50.264 252.998 49.952 253.622 49.536C254.142 49.068 255.026 48.392 255.338 47.508C255.858 46.936 255.442 46.676 255.806 45.792C255.91 45.168 255.806 44.648 255.858 43.972C255.91 43.452 256.898 43.296 257.262 43.66C257.678 44.076 257.522 44.492 257.418 44.908C257.262 45.948 257.366 46.468 257.262 47.768C257.054 49.068 257.314 49.588 257.262 50.888C257.106 51.98 257.47 52.76 257.262 54.216C257.262 55.672 257.522 56.244 257.366 57.18C257.314 57.648 257.626 58.168 257.314 58.844C257.002 59.364 255.754 59.416 255.754 58.376C255.754 57.18 255.598 56.036 255.234 55.1C254.87 54.528 255.13 53.956 254.246 53.228C253.466 52.708 253.206 52.864 252.426 52.396C251.802 52.448 251.074 52.084 249.878 52.136C249.358 52.136 248.526 52.084 247.954 52.084C247.226 52.136 247.226 52.708 247.07 53.072C246.706 53.592 247.122 55.36 247.07 56.244C246.602 57.076 246.862 57.856 247.07 58.376C247.07 59.26 247.07 59.676 247.07 60.56C246.758 61.184 247.382 62.068 247.07 62.744C246.862 63.42 247.226 64.564 247.07 64.928C247.174 65.76 246.966 67.372 247.278 68.204C247.434 68.62 247.642 69.192 248.37 69.244ZM301.901 58.324C301.953 59.104 301.641 59.468 301.745 60.404C301.849 61.028 301.589 62.484 301.537 63.004C301.433 64.044 301.329 64.824 301.381 65.708C301.433 66.384 301.121 67.06 301.277 67.736C301.277 68.36 301.069 69.452 301.121 70.648C301.225 71.688 300.549 71.376 299.509 71.376C298.521 71.272 296.129 71.064 295.193 71.064C294.101 71.22 292.957 70.856 292.281 71.012C291.449 71.116 290.149 71.064 289.317 71.064C288.173 71.012 287.185 71.324 286.457 71.012C285.625 70.908 284.117 71.168 282.973 70.96C282.141 71.168 281.621 71.272 280.633 71.116C279.385 70.856 278.553 71.532 277.773 71.168C276.421 70.908 276.369 71.272 274.913 71.272C274.445 71.012 273.821 71.272 273.197 71.22C272.105 71.116 271.585 71.48 270.545 71.22C269.141 71.064 269.817 69.608 270.805 69.712C271.949 69.816 272.833 69.66 273.977 69.608C274.289 69.556 275.329 69.504 275.329 68.62C275.381 67.684 275.381 66.332 275.537 65.24C275.277 64.408 275.433 63.628 275.537 63.108C275.797 62.744 275.225 61.86 275.537 60.924C275.641 59.884 275.329 59.468 275.537 58.74C275.849 58.168 275.485 57.232 275.537 56.504C275.693 55.984 275.641 55.1 275.537 54.32C275.589 53.54 275.329 52.968 275.537 52.136C275.589 51.72 275.433 50.68 275.537 49.952C275.277 49.536 275.641 48.184 275.537 47.768C275.797 46.832 275.589 46.468 275.537 45.584C275.849 45.012 275.693 44.544 275.537 43.4C275.641 42.464 275.381 41.944 275.537 41.216C275.485 40.332 275.745 39.864 275.537 39.032C275.537 38.148 275.381 37.42 275.537 36.172C275.433 35.444 274.445 34.924 273.613 34.872C271.949 34.82 270.389 35.236 269.973 34.612C269.869 34.404 269.349 33.52 270.545 33.156C271.221 33 271.897 33.312 272.469 33.208C273.301 33.052 273.977 33.104 274.601 33.26C275.693 33.052 276.057 33.572 276.889 33.26C277.461 33.104 278.293 33.468 279.229 33.26C280.165 33.364 280.581 33.26 281.569 33.26C282.401 33 283.077 33.624 283.909 33.26C284.377 33.26 285.677 33.364 286.301 33.26C286.821 33.156 287.185 33.208 288.069 33.208C288.641 33.208 289.005 34.924 287.653 34.924C286.769 34.924 285.729 34.872 284.793 34.82C283.805 34.872 282.921 35.704 283.129 36.172C283.077 36.848 283.181 37.992 283.129 38.98C282.973 39.968 282.869 40.488 283.129 41.112C283.025 42.412 283.337 43.088 283.025 43.66C282.349 44.492 283.441 45.012 283.129 45.428C282.817 46.156 282.973 47.248 283.129 47.612C283.129 48.288 282.921 49.016 283.129 49.796C283.025 50.784 283.285 50.992 283.129 51.928C282.765 52.76 283.389 53.332 283.129 54.112C282.973 55.152 283.285 55.256 283.129 56.244C282.401 57.18 283.129 57.492 283.129 58.428C283.077 59.312 283.025 60.196 283.129 60.612C283.441 61.548 282.869 61.964 283.129 62.744C283.181 63.732 282.713 64.044 283.129 64.876C283.129 66.228 283.233 67.112 283.129 68.1C283.285 68.724 284.325 69.348 285.157 69.192C286.405 69.14 286.769 69.192 288.017 69.192C288.901 69.14 290.149 69.296 290.981 69.088C291.761 69.088 293.165 68.724 294.049 68.568C294.725 68.412 295.765 68.256 296.753 67.32C297.377 66.8 298.417 66.332 298.729 65.084C298.625 64.668 299.405 63.68 299.405 63.316C299.769 62.64 299.561 62.068 299.873 61.496C300.029 61.028 299.925 60.56 300.133 60.092C300.341 59.676 300.237 59.364 300.237 58.688C300.185 57.232 301.849 57.7 301.901 58.324Z" fill="#181818"/>
<mask id="mask0_113_54" style="mask-type:luminance" maskUnits="userSpaceOnUse" x="0" y="20" width="56" height="63">
<path d="M56 20H0V82.6969H56V20Z" fill="white"/>
</mask>
<g mask="url(#mask0_113_54)">
<path d="M5.35669 60.0584V62.536C5.35689 63.0622 5.48418 63.5804 5.72775 64.0468C5.97132 64.5135 6.32392 64.9139 6.75557 65.2149L16.5758 55.3944L13.8533 52.6718C13.7804 52.5991 13.694 52.5413 13.5988 52.5019C13.5037 52.4624 13.4017 52.4421 13.2986 52.4421C13.1956 52.4421 13.0937 52.4624 12.9985 52.5019C12.9034 52.5413 12.8169 52.5991 12.744 52.6718L5.35669 60.0584Z" fill="#181818"/>
<path d="M13.2977 49.4571C13.6269 49.4563 13.9531 49.5205 14.2572 49.6468C14.5613 49.7727 14.8374 49.9579 15.0695 50.1912L18.4231 53.5448L25.3085 46.6593C26.0227 45.9463 26.9906 45.5458 27.9998 45.5458C29.009 45.5458 29.977 45.9463 30.6911 46.6593L40.265 56.2332L43.2241 53.2742C43.6944 52.805 44.3313 52.5415 44.9958 52.5415C45.66 52.5415 46.2972 52.805 46.7673 53.2742L50.6433 57.1534V40.1624C50.6433 39.5887 50.4922 39.0251 50.2051 38.5282C49.9182 38.0314 49.5056 37.6188 49.0088 37.3319L29.634 26.1457C29.1372 25.8588 28.5733 25.7078 27.9995 25.7078C27.4257 25.7078 26.862 25.8588 26.365 26.1457L6.98997 37.3319C6.49311 37.6188 6.08048 38.0314 5.79357 38.5282C5.50666 39.0251 5.35558 39.5887 5.35547 40.1624V56.3603L11.5249 50.1909C11.7571 49.9573 12.0335 49.7722 12.3377 49.6465C12.6421 49.5205 12.9684 49.456 13.2977 49.4571Z" fill="#181818"/>
<path d="M42.1135 58.0832L49.2433 65.2144C49.6751 64.9134 50.0276 64.5127 50.2711 64.0463C50.5146 63.5799 50.6417 63.0616 50.642 62.5355V60.8503L45.5482 55.7565C45.4011 55.6094 45.2016 55.5269 44.9936 55.5269C44.7854 55.5269 44.5859 55.6094 44.4387 55.7565L42.1135 58.0832Z" fill="#181818"/>
<path d="M40.2646 59.9313L38.4162 58.0832L28.8422 48.5095C28.6188 48.2863 28.3161 48.1611 28.0003 48.1611C27.6846 48.1611 27.3818 48.2863 27.1584 48.5095L20.2729 55.395L18.4243 57.2437L9.08984 66.577L26.3648 76.5514C26.8618 76.8382 27.4255 76.9893 27.9993 76.9893C28.5731 76.9893 29.137 76.8382 29.6338 76.5514L46.9088 66.577L40.2646 59.9313Z" fill="#181818"/>
<path d="M28.0001 22.7031C28.641 22.703 29.2708 22.8716 29.8257 23.1921L51.4713 35.6892C52.0265 36.0097 52.4872 36.4707 52.8076 37.0258C53.1281 37.5808 53.2969 38.2105 53.2969 38.8514V63.8458C53.2969 64.4866 53.1281 65.1162 52.8076 65.6714C52.4872 66.2262 52.0265 66.6873 51.4713 67.0077L29.8257 79.5049C29.2705 79.8253 28.641 79.9941 28 79.9941C27.3591 79.9941 26.7294 79.8253 26.1743 79.5049L4.5287 67.0077C3.97364 66.6873 3.51271 66.2262 3.19227 65.6714C2.87182 65.1162 2.70311 64.4866 2.70313 63.8458V38.8514C2.70312 38.2105 2.87182 37.5808 3.19227 37.0258C3.51274 36.4707 3.97364 36.0097 4.5287 35.6892L26.1743 23.1921C26.7294 22.8716 27.3592 22.703 28.0001 22.7031ZM28.0001 20C26.8848 20.0004 25.7891 20.294 24.823 20.8513L3.17713 33.3485C2.21236 33.9076 1.41118 34.71 0.853652 35.6757C0.296127 36.6413 0.00177147 37.7364 0 38.8514V63.8458C0.00182847 64.9609 0.296242 66.056 0.853816 67.0215C1.41139 67.9873 2.21261 68.7896 3.17741 69.3487L24.823 81.8459C25.789 82.4036 26.8848 82.6969 28.0001 82.6969C29.1155 82.6969 30.2112 82.4036 31.1773 81.8459L52.8229 69.3487C53.7878 68.7899 54.5893 67.9873 55.147 67.0218C55.7047 66.056 55.9992 64.9609 56.0011 63.8458V38.8514C55.9994 37.7364 55.7049 36.6413 55.1475 35.6757C54.5898 34.71 53.7886 33.9076 52.824 33.3485L31.1784 20.8513C30.2124 20.2941 29.1167 20.0005 28.0013 20H28.0001Z" fill="#181818"/>
</g>
</svg>
